<?xml version="1.0" encoding="UTF-8"?>
<svg xmlns="http://www.w3.org/2000/svg" xmlns:xlink="http://www.w3.org/1999/xlink" width="200pt" height="200pt" viewBox="0 0 200 200" version="1.1">
<g id="surface1">
<path style=" stroke:none;fill-rule:nonzero;fill:rgb(31.764706%,35.294118%,43.137255%);fill-opacity:1;" d="M 199.609375 99.609375 C 199.609375 119.65625 193.710938 138.320312 183.554688 153.96875 C 180.191406 159.160156 176.351562 164.019531 172.105469 168.484375 C 170.0625 170.636719 167.921875 172.703125 165.6875 174.664062 C 158.996094 180.566406 151.511719 185.578125 143.414062 189.527344 C 135.929688 193.183594 127.921875 195.925781 119.535156 197.621094 C 116.128906 198.3125 112.652344 198.828125 109.132812 199.160156 C 105.996094 199.457031 102.820312 199.609375 99.609375 199.609375 C 96.441406 199.609375 93.3125 199.464844 90.222656 199.171875 C 86.746094 198.847656 83.316406 198.347656 79.953125 197.675781 C 77.832031 197.253906 75.734375 196.765625 73.660156 196.207031 C 66.195312 194.210938 59.078125 191.367188 52.414062 187.792969 C 51.71875 187.421875 51.027344 187.039062 50.34375 186.648438 C 47.167969 184.847656 44.105469 182.882812 41.15625 180.753906 C 28.195312 171.402344 17.558594 159.019531 10.300781 144.644531 C 3.460938 131.109375 -0.390625 115.804688 -0.390625 99.609375 C -0.390625 83.414062 3.460938 68.109375 10.300781 54.574219 C 18.097656 39.140625 29.78125 26 44.066406 16.441406 C 46.691406 14.683594 49.40625 13.046875 52.203125 11.539062 C 52.269531 11.503906 52.34375 11.460938 52.414062 11.425781 C 66.46875 3.886719 82.539062 -0.390625 99.609375 -0.390625 C 108.242188 -0.390625 116.617188 0.703125 124.609375 2.753906 C 124.957031 2.851562 125.300781 2.941406 125.640625 3.035156 C 126.605469 3.292969 127.558594 3.566406 128.511719 3.851562 C 151.226562 10.695312 170.535156 25.40625 183.269531 44.808594 C 184.601562 46.839844 185.863281 48.917969 187.046875 51.046875 C 195.050781 65.425781 199.609375 81.984375 199.609375 99.609375 Z M 199.609375 99.609375 "/>
<path style=" stroke:none;fill-rule:nonzero;fill:rgb(89.803922%,83.921569%,72.54902%);fill-opacity:1;" d="M 99.175781 37.070312 C 99.175781 37.539062 99.167969 38.003906 99.15625 38.46875 C 98.546875 60.4375 65.433594 60.4375 64.820312 38.46875 C 64.804688 38.003906 64.800781 37.539062 64.800781 37.070312 C 64.800781 30.253906 66.183594 23.757812 68.6875 17.847656 C 71.671875 10.777344 76.257812 4.546875 81.988281 -0.390625 C 92.511719 8.675781 99.175781 22.089844 99.175781 37.070312 Z M 99.175781 37.070312 "/>
<path style=" stroke:none;fill-rule:nonzero;fill:rgb(81.960784%,66.27451%,50.980392%);fill-opacity:1;" d="M 81.988281 54.945312 C 73.554688 54.945312 65.121094 49.453125 64.816406 38.46875 C 64.804688 38.003906 64.800781 37.539062 64.800781 37.070312 C 64.800781 30.253906 66.183594 23.757812 68.6875 17.847656 C 71.671875 10.777344 76.257812 4.546875 81.988281 -0.390625 C 80.363281 4.546875 79.0625 10.777344 78.214844 17.847656 C 77.503906 23.757812 77.109375 30.253906 77.109375 37.070312 C 77.109375 37.539062 77.109375 38.003906 77.113281 38.46875 C 77.203125 49.453125 79.597656 54.945312 81.988281 54.945312 Z M 81.988281 54.945312 "/>
<path style=" stroke:none;fill-rule:nonzero;fill:rgb(28.627451%,66.666667%,71.764706%);fill-opacity:1;" d="M 99.175781 37.070312 C 85.773438 43.023438 83.550781 23.40625 77.464844 29.5 C 77.398438 29.566406 77.335938 29.628906 77.269531 29.6875 C 71.25 35.457031 65.417969 29.375 68.6875 17.847656 C 71.671875 10.777344 76.257812 4.546875 81.988281 -0.390625 C 92.511719 8.675781 99.175781 22.089844 99.175781 37.070312 Z M 99.175781 37.070312 "/>
<path style=" stroke:none;fill-rule:nonzero;fill:rgb(28.235294%,50.196078%,53.72549%);fill-opacity:1;" d="M 81.988281 -0.390625 C 80.363281 4.546875 79.0625 10.777344 78.214844 17.847656 C 77.765625 21.582031 77.445312 25.546875 77.269531 29.6875 C 71.246094 35.457031 65.414062 29.375 68.6875 17.847656 C 71.671875 10.777344 76.257812 4.546875 81.988281 -0.390625 Z M 81.988281 -0.390625 "/>
<path style=" stroke:none;fill-rule:nonzero;fill:rgb(36.078431%,74.901961%,58.823529%);fill-opacity:1;" d="M 95.296875 49.554688 L 93.425781 104.617188 L 90.222656 199.171875 C 86.746094 198.847656 83.316406 198.347656 79.953125 197.675781 C 77.832031 197.253906 75.734375 196.765625 73.660156 196.207031 L 70.558594 104.617188 L 68.6875 49.554688 Z M 95.296875 49.554688 "/>
<path style=" stroke:none;fill-rule:nonzero;fill:rgb(32.156863%,61.960784%,37.254902%);fill-opacity:1;" d="M 79.953125 197.675781 C 77.832031 197.253906 75.734375 196.765625 73.660156 196.207031 L 70.558594 104.617188 L 68.6875 49.554688 L 78.71875 49.554688 L 79.179688 104.617188 Z M 79.953125 197.675781 "/>
<path style=" stroke:none;fill-rule:nonzero;fill:rgb(90.196078%,90.196078%,90.196078%);fill-opacity:1;" d="M 95.292969 49.550781 L 93.425781 104.617188 L 70.558594 104.617188 L 68.6875 49.550781 Z M 95.292969 49.550781 "/>
<path style=" stroke:none;fill-rule:nonzero;fill:rgb(80%,80%,80%);fill-opacity:1;" d="M 79.179688 104.617188 L 70.558594 104.617188 L 68.6875 49.550781 L 78.722656 49.550781 Z M 79.179688 104.617188 "/>
<path style=" stroke:none;fill-rule:nonzero;fill:rgb(28.627451%,66.666667%,71.764706%);fill-opacity:1;" d="M 187.257812 44.808594 L 187.046875 51.046875 L 185.433594 98.570312 L 183.554688 153.96875 C 180.191406 159.160156 176.351562 164.019531 172.105469 168.484375 C 170.0625 170.636719 167.921875 172.703125 165.6875 174.664062 L 163.105469 98.570312 L 161.28125 44.808594 Z M 187.257812 44.808594 "/>
<path style=" stroke:none;fill-rule:nonzero;fill:rgb(28.235294%,50.196078%,53.72549%);fill-opacity:1;" d="M 172.105469 168.484375 C 170.0625 170.636719 167.921875 172.703125 165.6875 174.664062 L 163.105469 98.570312 L 161.28125 44.808594 L 171.078125 44.808594 L 171.527344 98.570312 Z M 172.105469 168.484375 "/>
<path style=" stroke:none;fill-rule:nonzero;fill:rgb(90.196078%,90.196078%,90.196078%);fill-opacity:1;" d="M 187.257812 44.808594 L 185.433594 98.570312 L 163.109375 98.570312 L 161.285156 44.808594 Z M 187.257812 44.808594 "/>
<path style=" stroke:none;fill-rule:nonzero;fill:rgb(80%,80%,80%);fill-opacity:1;" d="M 171.527344 98.570312 L 163.109375 98.570312 L 161.285156 44.808594 L 171.078125 44.808594 Z M 171.527344 98.570312 "/>
<path style=" stroke:none;fill-rule:nonzero;fill:rgb(89.803922%,83.921569%,72.54902%);fill-opacity:1;" d="M 199.609375 3.0625 L 193.363281 24.179688 L 187.261719 44.8125 L 161.285156 44.8125 L 152.230469 14.191406 L 152.226562 14.1875 L 148.933594 3.0625 Z M 199.609375 3.0625 "/>
<path style=" stroke:none;fill-rule:nonzero;fill:rgb(81.960784%,66.27451%,50.980392%);fill-opacity:1;" d="M 171.078125 44.808594 L 171.070312 44.8125 L 161.285156 44.8125 L 152.230469 14.191406 L 152.226562 14.1875 L 148.933594 3.0625 L 162.792969 3.0625 Z M 171.078125 44.808594 "/>
<path style=" stroke:none;fill-rule:nonzero;fill:rgb(91.764706%,49.411765%,35.294118%);fill-opacity:1;" d="M 199.609375 3.0625 L 193.363281 24.179688 C 191.152344 20.699219 189.082031 16.777344 184.875 15.285156 C 174.804688 11.730469 176.164062 21.097656 167.730469 24.730469 C 167.53125 24.820312 167.335938 24.894531 167.140625 24.972656 C 159.054688 28 154.128906 20.625 152.230469 14.191406 L 152.226562 14.1875 L 148.933594 3.0625 Z M 199.609375 3.0625 "/>
<path style=" stroke:none;fill-rule:nonzero;fill:rgb(83.921569%,30.980392%,22.352941%);fill-opacity:1;" d="M 167.140625 24.972656 C 159.054688 28 154.128906 20.625 152.230469 14.191406 L 152.226562 14.1875 L 148.933594 3.066406 L 162.792969 3.066406 Z M 167.140625 24.972656 "/>
<path style=" stroke:none;fill-rule:nonzero;fill:rgb(96.862745%,83.921569%,36.862745%);fill-opacity:1;" d="M 143.414062 32.058594 L 143.414062 189.527344 C 135.929688 193.183594 127.921875 195.925781 119.535156 197.621094 C 116.128906 198.3125 112.652344 198.828125 109.132812 199.160156 L 109.132812 32.058594 L 118.890625 13.585938 L 124.609375 2.753906 L 126.269531 -0.390625 L 128.511719 3.851562 L 133.65625 13.585938 Z M 143.414062 32.058594 "/>
<path style=" stroke:none;fill-rule:nonzero;fill:rgb(89.803922%,83.921569%,72.54902%);fill-opacity:1;" d="M 143.421875 32.078125 C 138.296875 34.789062 132.457031 36.324219 126.265625 36.324219 C 124.007812 36.324219 121.792969 36.121094 119.644531 35.726562 C 115.90625 35.046875 112.367188 33.800781 109.125 32.078125 L 126.265625 -0.390625 L 126.269531 -0.386719 Z M 143.421875 32.078125 "/>
<path style=" stroke:none;fill-rule:nonzero;fill:rgb(81.960784%,63.529412%,16.470588%);fill-opacity:1;" d="M 126.269531 -0.390625 L 125.640625 3.035156 L 119.535156 36.324219 L 119.535156 197.621094 C 116.128906 198.3125 112.652344 198.828125 109.132812 199.160156 L 109.132812 32.058594 L 118.890625 13.585938 L 124.609375 2.753906 Z M 126.269531 -0.390625 "/>
<path style=" stroke:none;fill-rule:nonzero;fill:rgb(81.960784%,66.27451%,50.980392%);fill-opacity:1;" d="M 126.269531 -0.386719 L 119.644531 35.726562 C 115.90625 35.046875 112.367188 33.800781 109.125 32.078125 L 126.265625 -0.390625 Z M 126.269531 -0.386719 "/>
<path style=" stroke:none;fill-rule:nonzero;fill:rgb(92.941176%,34.901961%,44.705882%);fill-opacity:1;" d="M 133.652344 13.585938 C 131.449219 14.753906 128.933594 15.414062 126.269531 15.414062 C 125.292969 15.414062 124.339844 15.328125 123.417969 15.15625 C 121.808594 14.863281 120.285156 14.328125 118.890625 13.585938 L 126.269531 -0.390625 Z M 133.652344 13.585938 "/>
<path style=" stroke:none;fill-rule:nonzero;fill:rgb(84.705882%,21.568627%,35.294118%);fill-opacity:1;" d="M 126.269531 -0.390625 L 123.417969 15.15625 C 121.808594 14.863281 120.285156 14.328125 118.890625 13.585938 Z M 126.269531 -0.390625 "/>
<path style=" stroke:none;fill-rule:nonzero;fill:rgb(91.764706%,49.411765%,35.294118%);fill-opacity:1;" d="M 52.414062 -0.390625 L 52.414062 187.792969 C 51.71875 187.421875 51.027344 187.039062 50.34375 186.648438 C 47.167969 184.847656 44.105469 182.882812 41.15625 180.753906 C 28.195312 171.402344 17.558594 159.019531 10.300781 144.644531 L 10.300781 -0.390625 Z M 52.414062 -0.390625 "/>
<path style=" stroke:none;fill-rule:nonzero;fill:rgb(83.921569%,30.980392%,22.352941%);fill-opacity:1;" d="M 34.867188 10.546875 L 52.199219 10.546875 L 52.199219 16.441406 L 34.867188 16.441406 Z M 34.867188 10.546875 "/>
<path style=" stroke:none;fill-rule:nonzero;fill:rgb(83.921569%,30.980392%,22.352941%);fill-opacity:1;" d="M 34.867188 29.460938 L 52.199219 29.460938 L 52.199219 35.355469 L 34.867188 35.355469 Z M 34.867188 29.460938 "/>
<path style=" stroke:none;fill-rule:nonzero;fill:rgb(83.921569%,30.980392%,22.352941%);fill-opacity:1;" d="M 34.867188 48.371094 L 52.199219 48.371094 L 52.199219 54.265625 L 34.867188 54.265625 Z M 34.867188 48.371094 "/>
<path style=" stroke:none;fill-rule:nonzero;fill:rgb(83.921569%,30.980392%,22.352941%);fill-opacity:1;" d="M 34.867188 67.285156 L 52.199219 67.285156 L 52.199219 73.175781 L 34.867188 73.175781 Z M 34.867188 67.285156 "/>
<path style=" stroke:none;fill-rule:nonzero;fill:rgb(83.921569%,30.980392%,22.352941%);fill-opacity:1;" d="M 34.867188 86.195312 L 52.199219 86.195312 L 52.199219 92.089844 L 34.867188 92.089844 Z M 34.867188 86.195312 "/>
<path style=" stroke:none;fill-rule:nonzero;fill:rgb(83.921569%,30.980392%,22.352941%);fill-opacity:1;" d="M 34.867188 105.105469 L 52.199219 105.105469 L 52.199219 111 L 34.867188 111 Z M 34.867188 105.105469 "/>
<path style=" stroke:none;fill-rule:nonzero;fill:rgb(83.921569%,30.980392%,22.352941%);fill-opacity:1;" d="M 34.867188 124.019531 L 52.199219 124.019531 L 52.199219 129.914062 L 34.867188 129.914062 Z M 34.867188 124.019531 "/>
<path style=" stroke:none;fill-rule:nonzero;fill:rgb(83.921569%,30.980392%,22.352941%);fill-opacity:1;" d="M 34.867188 142.929688 L 52.199219 142.929688 L 52.199219 148.824219 L 34.867188 148.824219 Z M 34.867188 142.929688 "/>
<path style=" stroke:none;fill-rule:nonzero;fill:rgb(83.921569%,30.980392%,22.352941%);fill-opacity:1;" d="M 34.867188 161.84375 L 52.199219 161.84375 L 52.199219 167.738281 L 34.867188 167.738281 Z M 34.867188 161.84375 "/>
<path style=" stroke:none;fill-rule:nonzero;fill:rgb(83.921569%,30.980392%,22.352941%);fill-opacity:1;" d="M 52.203125 180.753906 L 52.203125 186.648438 L 50.34375 186.648438 C 47.167969 184.847656 44.105469 182.882812 41.15625 180.753906 Z M 52.203125 180.753906 "/>
</g>
</svg>
